<svg version="1.1" id="Layer_1" xmlns="http://www.w3.org/2000/svg" xmlns:xlink="http://www.w3.org/1999/xlink" x="0px" y="0px"
	 width="100%" viewBox="0 0 902 253" enable-background="new 0 0 902 253" xml:space="preserve">
<path fill="#020202" opacity="1.000000" stroke="none" 
	d="
M903.000000,31.999998 
	C903.000000,105.986282 903.000000,179.972565 903.000000,253.979431 
	C602.402771,253.979431 301.805573,253.979431 1.104178,253.979431 
	C1.104178,169.751862 1.104178,85.503563 1.104178,1.127628 
	C301.666626,1.127628 602.333313,1.127628 903.000000,1.127628 
	C903.000000,9.409042 903.000000,17.740637 902.582581,26.402241 
	C877.189758,26.718397 852.213440,26.607824 827.240234,26.835300 
	C824.647644,26.858913 821.380310,28.224644 819.591309,30.086998 
	C765.258545,86.646393 711.070801,143.345001 656.875366,200.036163 
	C656.025635,200.925003 655.360901,201.990784 654.192017,203.520981 
	C668.016479,203.520981 681.070618,203.628586 694.119385,203.413818 
	C696.263916,203.378525 698.807190,202.428894 700.448914,201.048691 
	C711.637634,191.642395 722.636108,182.009705 733.671570,172.422058 
	C733.791504,172.317871 733.586975,171.840271 733.389465,170.711533 
	C726.902100,170.711533 720.252075,170.711533 712.200684,170.711533 
	C714.678955,168.345856 715.955811,167.086548 717.275513,165.873825 
	C726.103271,157.761612 735.237854,149.953995 743.661133,141.442139 
	C748.636230,136.414749 753.765625,134.497986 760.832031,134.770493 
	C765.840332,134.963623 772.017029,134.037384 775.808105,131.157166 
	C787.319824,122.411301 797.930176,112.478340 808.869019,102.981689 
	C809.297668,102.609550 809.494080,101.969894 810.275330,100.649170 
	C803.182312,100.649170 796.828674,100.649170 789.696838,100.649170 
	C790.900146,99.106453 791.395935,98.253929 792.088684,97.614876 
	C805.673096,85.082283 819.242676,72.532829 832.950745,60.136578 
	C834.114136,59.084465 836.223694,58.708656 837.910034,58.666222 
	C847.232849,58.431644 856.573364,58.640202 865.879089,58.150673 
	C868.744324,57.999950 872.027344,56.752064 874.245056,54.938110 
	C882.617249,48.090405 890.593628,40.760624 898.820740,33.731308 
	C899.911011,32.799747 901.592346,32.560074 903.000000,31.999998 
M284.618317,26.117708 
	C280.831970,26.330873 277.045593,26.544041 272.491699,26.800417 
	C284.090790,52.124123 295.389526,76.792030 306.691010,101.465965 
	C299.237274,103.011803 294.632324,100.711250 291.801086,94.196342 
	C289.623016,89.184326 286.529877,84.577248 283.985321,79.715942 
	C275.429688,63.370792 266.985992,46.966709 258.342499,30.668427 
	C257.518768,29.115187 255.617844,27.092039 254.183472,27.064985 
	C239.938690,26.796297 225.686844,26.902197 211.402420,26.902197 
	C211.448853,27.492790 211.365707,27.871998 211.513046,28.106253 
	C247.934143,86.015053 284.365906,143.917160 320.852844,201.784454 
	C321.479980,202.779083 322.763641,203.992767 323.766907,204.016724 
	C331.523224,204.201904 339.285950,204.118774 348.221100,204.118774 
	C336.193573,180.675003 324.641205,158.157364 313.023376,135.512146 
	C322.547272,134.152893 322.494934,134.177170 326.090332,141.929993 
	C335.105286,161.369324 344.134186,180.802521 353.290344,200.175400 
	C354.027740,201.735626 355.732574,203.876434 357.074890,203.941116 
	C364.636475,204.305496 372.224762,204.116974 380.057648,204.116974 
	C379.860626,202.681610 379.880920,202.001404 379.669037,201.403488 
	C359.384705,144.161438 339.105713,86.917412 318.647644,29.737459 
	C318.141266,28.322092 315.677155,26.795870 314.062073,26.722008 
	C304.581848,26.288443 295.082550,26.271656 284.618317,26.117708 
M83.850784,105.648743 
	C97.095894,116.549248 110.324471,127.469925 123.589958,138.345581 
	C143.937164,155.027130 163.984360,172.097641 184.774460,188.208710 
	C201.434479,201.119202 220.435394,208.120117 242.007660,205.012192 
	C244.674271,204.628021 248.308273,203.181229 249.302734,201.152634 
	C250.299423,199.119492 249.399933,195.100693 247.861191,193.061874 
	C240.847046,183.768066 233.737534,174.479462 225.895889,165.888535 
	C192.987595,129.835800 159.800613,94.037491 126.724945,58.137474 
	C118.927910,49.674644 111.156387,41.189995 100.619850,35.956753 
	C75.703835,23.581581 49.415295,22.839596 22.623510,26.975889 
	C17.888342,27.706936 15.303991,30.885174 14.796791,35.960529 
	C13.887472,45.059742 18.789625,51.262840 24.997438,56.521141 
	C44.314602,72.883667 63.854252,88.983543 83.850784,105.648743 
M508.663330,89.148972 
	C516.812134,68.367081 524.960938,47.585186 533.361084,26.162222 
	C517.797791,26.162222 502.707184,26.100693 487.620148,26.304663 
	C486.644470,26.317854 485.169159,28.232746 484.822021,29.507051 
	C482.730927,37.182583 481.056885,44.972141 478.947113,52.642063 
	C475.948639,63.542614 472.694153,74.372726 469.549072,85.232933 
	C468.884644,85.101868 468.220245,84.970802 467.555847,84.839729 
	C468.747162,65.413696 469.938477,45.987663 471.137268,26.439777 
	C455.160156,26.439777 439.919800,26.439777 424.205627,26.439777 
	C428.229645,85.748123 432.231201,144.725800 436.242157,203.841995 
	C447.720764,203.841995 458.737915,204.542877 469.631500,203.681381 
	C486.933197,202.313110 492.419250,197.463699 496.901398,180.495651 
	C500.624268,166.401840 503.751953,152.144684 506.883026,137.902664 
	C509.361328,126.629906 510.435211,115.169945 507.825562,103.805695 
	C506.708832,98.942528 506.402588,94.454041 508.663330,89.148972 
M599.592224,188.098190 
	C596.337952,193.127792 593.083679,198.157379 589.202393,204.156021 
	C597.824158,204.156021 604.996948,204.495316 612.123474,204.066254 
	C620.206299,203.579590 628.503601,203.370926 636.251404,201.318787 
	C650.348572,197.584854 661.083496,188.103485 670.895508,177.750122 
	C695.065613,152.246414 719.161133,126.671364 743.171936,101.017624 
	C757.048950,86.191078 771.294373,71.649261 784.287903,56.073330 
	C796.721313,41.168854 792.259949,29.711575 772.951904,27.948538 
	C753.464355,26.169109 733.741455,27.064024 714.132019,26.454105 
	C709.133789,26.298643 706.488037,28.376223 703.864319,32.312378 
	C669.339905,84.107285 634.658752,135.797714 599.592224,188.098190 
M533.449951,205.127045 
	C540.668091,203.838806 548.327881,202.964508 553.268860,196.911484 
	C565.469299,181.965103 571.797119,163.732086 581.439880,146.266846 
	C571.198975,146.266846 561.927795,146.443634 552.669312,146.177460 
	C549.101379,146.074890 547.665222,147.545639 546.775757,150.670120 
	C545.370117,155.607574 543.872864,160.539001 542.034058,165.326874 
	C540.529297,169.244797 538.173523,172.611694 532.674622,173.315338 
	C534.281006,168.335831 535.781616,163.848175 537.175842,159.327698 
	C539.926208,150.409988 545.028198,143.397049 552.985840,138.292130 
	C561.390198,132.900589 569.341614,126.797226 577.793823,121.486969 
	C603.402832,105.397667 616.176331,80.104454 626.436279,53.267879 
	C631.078552,41.125313 626.103455,32.630516 613.658386,28.541561 
	C600.732178,24.294538 587.500244,24.334078 574.140869,26.169701 
	C548.078735,29.750723 531.899841,44.023277 526.323853,69.910469 
	C525.302551,74.652016 524.509094,79.442642 523.495728,84.819191 
	C536.434326,84.819191 548.414734,84.910645 560.388916,84.681259 
	C561.619995,84.657684 563.350037,82.952499 563.933105,81.625404 
	C566.465576,75.861084 568.710999,69.967690 570.959412,64.082466 
	C572.888855,59.032204 576.575684,57.602089 581.953552,58.539551 
	C580.145386,63.703480 578.462280,68.704247 576.645996,73.656174 
	C572.987488,83.630798 567.032349,91.732750 557.908875,97.534996 
	C550.328003,102.356155 542.974060,107.551170 535.684998,112.809891 
	C526.590027,119.371536 517.640198,126.327278 513.532532,137.244217 
	C507.132996,154.252060 503.623199,172.002182 501.587799,190.021500 
	C500.707611,197.814026 504.375519,202.976822 512.261108,204.172592 
	C518.933777,205.184402 525.799377,204.923492 533.449951,205.127045 
M414.783386,109.846649 
	C414.361572,107.269249 413.939758,104.691856 413.542206,102.262611 
	C412.916473,102.068977 412.606445,101.891724 412.294830,101.888908 
	C408.130707,101.851280 403.966400,101.831947 399.802063,101.819984 
	C390.963074,101.794579 390.961121,101.797966 388.741669,93.435196 
	C388.273834,91.672630 387.739624,89.921989 387.383484,88.136436 
	C385.518188,78.785416 383.700409,69.424919 381.719696,59.320816 
	C393.696320,59.320816 404.895020,59.320816 416.533081,59.320816 
	C415.554260,47.977406 414.633087,37.302353 413.718201,26.699718 
	C385.023804,26.699718 356.848297,26.699718 328.319550,26.699718 
	C328.909210,28.615076 329.326660,30.024467 329.776276,31.423538 
	C335.509338,49.262875 341.241974,67.102364 346.984528,84.938675 
	C359.279633,123.127113 371.556793,161.321442 383.964294,199.473358 
	C384.469269,201.026093 386.204071,203.311646 387.401611,203.333893 
	C401.831543,203.602036 416.268219,203.507462 431.167389,203.507462 
	C429.846619,192.640152 428.538361,181.875961 427.204498,170.901230 
	C418.840637,170.901230 411.211548,170.901230 403.233856,170.901230 
	C400.950104,158.919464 398.711609,147.175003 396.365448,134.865646 
	C403.752899,134.865646 410.188385,134.865646 417.187378,134.865646 
	C416.389526,126.526413 415.634949,118.639603 414.783386,109.846649 
M208.737000,69.765503 
	C202.393692,60.796886 196.076859,51.809395 189.697205,42.866703 
	C185.838287,37.457474 182.952271,30.021721 177.673538,27.326233 
	C172.209000,24.535866 164.381775,26.284552 157.586227,26.210894 
	C148.964081,26.117441 140.340164,26.188292 131.717026,26.188292 
	C131.523682,26.652946 131.330338,27.117601 131.137009,27.582254 
	C170.761261,74.724197 210.385498,121.866142 251.025269,170.216263 
	C244.979919,170.216263 240.457169,170.216263 235.542068,170.216263 
	C236.078445,171.454025 236.165054,171.974411 236.464371,172.298065 
	C245.847015,182.442886 255.191177,192.625153 264.735962,202.615616 
	C265.767609,203.695435 267.978119,204.049469 269.645569,204.058701 
	C284.300598,204.139801 298.956512,204.074615 313.612030,204.023300 
	C314.844177,204.018982 316.075623,203.800247 318.151611,203.599487 
	C312.747223,195.180450 307.130615,187.710663 302.929291,179.515366 
	C298.961761,171.776123 293.583954,168.576248 285.202179,170.023560 
	C281.283875,170.700165 278.913086,168.957397 276.646942,165.736115 
	C254.235779,133.878952 231.657242,102.139503 208.737000,69.765503 
M651.024658,26.867252 
	C648.881592,29.984489 646.386597,32.917892 644.648010,36.246372 
	C616.312622,90.494118 588.071716,144.791168 559.819458,199.082321 
	C559.088501,200.487030 558.471130,201.950867 557.508545,204.013290 
	C564.295044,204.013290 570.269226,203.751770 576.206787,204.104767 
	C580.199280,204.342133 582.447998,202.919968 584.609680,199.583130 
	C621.185608,143.121063 657.898987,86.747986 694.567017,30.345541 
	C695.324280,29.180731 695.903992,27.900524 696.517761,26.764463 
	C681.368225,26.764463 666.606689,26.764463 651.024658,26.867252 
z"/>
<path fill="#FAFAFA" opacity="1.000000" stroke="none" 
	d="
M903.000000,31.583332 
	C901.592346,32.560074 899.911011,32.799747 898.820740,33.731308 
	C890.593628,40.760624 882.617249,48.090405 874.245056,54.938110 
	C872.027344,56.752064 868.744324,57.999950 865.879089,58.150673 
	C856.573364,58.640202 847.232849,58.431644 837.910034,58.666222 
	C836.223694,58.708656 834.114136,59.084465 832.950745,60.136578 
	C819.242676,72.532829 805.673096,85.082283 792.088684,97.614876 
	C791.395935,98.253929 790.900146,99.106453 789.696838,100.649170 
	C796.828674,100.649170 803.182312,100.649170 810.275330,100.649170 
	C809.494080,101.969894 809.297668,102.609550 808.869019,102.981689 
	C797.930176,112.478340 787.319824,122.411301 775.808105,131.157166 
	C772.017029,134.037384 765.840332,134.963623 760.832031,134.770493 
	C753.765625,134.497986 748.636230,136.414749 743.661133,141.442139 
	C735.237854,149.953995 726.103271,157.761612 717.275513,165.873825 
	C715.955811,167.086548 714.678955,168.345856 712.200684,170.711533 
	C720.252075,170.711533 726.902100,170.711533 733.389465,170.711533 
	C733.586975,171.840271 733.791504,172.317871 733.671570,172.422058 
	C722.636108,182.009705 711.637634,191.642395 700.448914,201.048691 
	C698.807190,202.428894 696.263916,203.378525 694.119385,203.413818 
	C681.070618,203.628586 668.016479,203.520981 654.192017,203.520981 
	C655.360901,201.990784 656.025635,200.925003 656.875366,200.036163 
	C711.070801,143.345001 765.258545,86.646393 819.591309,30.086998 
	C821.380310,28.224644 824.647644,26.858913 827.240234,26.835300 
	C852.213440,26.607824 877.189758,26.718397 902.582581,26.866123 
	C903.000000,28.388889 903.000000,29.777779 903.000000,31.583332 
z"/>
<path fill="#FBFBFB" opacity="1.000000" stroke="none" 
	d="
M285.104004,26.116032 
	C295.082550,26.271656 304.581848,26.288443 314.062073,26.722008 
	C315.677155,26.795870 318.141266,28.322092 318.647644,29.737459 
	C339.105713,86.917412 359.384705,144.161438 379.669037,201.403488 
	C379.880920,202.001404 379.860626,202.681610 380.057648,204.116974 
	C372.224762,204.116974 364.636475,204.305496 357.074890,203.941116 
	C355.732574,203.876434 354.027740,201.735626 353.290344,200.175400 
	C344.134186,180.802521 335.105286,161.369324 326.090332,141.929993 
	C322.494934,134.177170 322.547272,134.152893 313.023376,135.512146 
	C324.641205,158.157364 336.193573,180.675003 348.221100,204.118774 
	C339.285950,204.118774 331.523224,204.201904 323.766907,204.016724 
	C322.763641,203.992767 321.479980,202.779083 320.852844,201.784454 
	C284.365906,143.917160 247.934143,86.015053 211.513046,28.106253 
	C211.365707,27.871998 211.448853,27.492790 211.402420,26.902197 
	C225.686844,26.902197 239.938690,26.796297 254.183472,27.064985 
	C255.617844,27.092039 257.518768,29.115187 258.342499,30.668427 
	C266.985992,46.966709 275.429688,63.370792 283.985321,79.715942 
	C286.529877,84.577248 289.623016,89.184326 291.801086,94.196342 
	C294.632324,100.711250 299.237274,103.011803 306.691010,101.465965 
	C295.389526,76.792030 284.090790,52.124123 272.491699,26.800417 
	C277.045593,26.544041 280.831970,26.330873 285.104004,26.116032 
z"/>
<path fill="#FAFAFA" opacity="1.000000" stroke="none" 
	d="
M83.579193,105.417023 
	C63.854252,88.983543 44.314602,72.883667 24.997438,56.521141 
	C18.789625,51.262840 13.887472,45.059742 14.796791,35.960529 
	C15.303991,30.885174 17.888342,27.706936 22.623510,26.975889 
	C49.415295,22.839596 75.703835,23.581581 100.619850,35.956753 
	C111.156387,41.189995 118.927910,49.674644 126.724945,58.137474 
	C159.800613,94.037491 192.987595,129.835800 225.895889,165.888535 
	C233.737534,174.479462 240.847046,183.768066 247.861191,193.061874 
	C249.399933,195.100693 250.299423,199.119492 249.302734,201.152634 
	C248.308273,203.181229 244.674271,204.628021 242.007660,205.012192 
	C220.435394,208.120117 201.434479,201.119202 184.774460,188.208710 
	C163.984360,172.097641 143.937164,155.027130 123.589958,138.345581 
	C110.324471,127.469925 97.095894,116.549248 83.579193,105.417023 
M200.156311,171.151566 
	C162.991379,135.310974 125.854683,99.440987 88.625015,63.667767 
	C84.072166,59.293030 78.392639,57.058460 71.450623,57.529709 
	C75.482872,62.745480 79.627625,67.872787 84.430405,72.283569 
	C120.010521,104.959625 155.670593,137.549591 191.530487,169.917389 
	C193.477280,171.674622 197.439362,171.199142 200.156311,171.151566 
z"/>
<path fill="#FCFCFC" opacity="1.000000" stroke="none" 
	d="
M508.484802,89.504936 
	C506.402588,94.454041 506.708832,98.942528 507.825562,103.805695 
	C510.435211,115.169945 509.361328,126.629906 506.883026,137.902664 
	C503.751953,152.144684 500.624268,166.401840 496.901398,180.495651 
	C492.419250,197.463699 486.933197,202.313110 469.631500,203.681381 
	C458.737915,204.542877 447.720764,203.841995 436.242157,203.841995 
	C432.231201,144.725800 428.229645,85.748123 424.205627,26.439777 
	C439.919800,26.439777 455.160156,26.439777 471.137268,26.439777 
	C469.938477,45.987663 468.747162,65.413696 467.555847,84.839729 
	C468.220245,84.970802 468.884644,85.101868 469.549072,85.232933 
	C472.694153,74.372726 475.948639,63.542614 478.947113,52.642063 
	C481.056885,44.972141 482.730927,37.182583 484.822021,29.507051 
	C485.169159,28.232746 486.644470,26.317854 487.620148,26.304663 
	C502.707184,26.100693 517.797791,26.162222 533.361084,26.162222 
	C524.960938,47.585186 516.812134,68.367081 508.484802,89.504936 
M463.211304,153.639328 
	C463.145508,158.453537 462.970398,163.270676 463.098572,168.079712 
	C463.127045,169.147430 464.060791,170.882751 464.869659,171.073715 
	C466.044983,171.351135 468.206543,170.907440 468.677826,170.062790 
	C470.093903,167.524902 471.533813,164.709427 471.823883,161.885117 
	C472.992493,150.506363 473.910248,139.093857 474.570740,127.673553 
	C475.060822,119.199730 474.820251,119.185814 465.634705,117.997025 
	C464.848206,129.582718 464.064178,141.132263 463.211304,153.639328 
z"/>
<path fill="#FBFBFB" opacity="1.000000" stroke="none" 
	d="
M599.804565,187.806274 
	C634.658752,135.797714 669.339905,84.107285 703.864319,32.312378 
	C706.488037,28.376223 709.133789,26.298643 714.132019,26.454105 
	C733.741455,27.064024 753.464355,26.169109 772.951904,27.948538 
	C792.259949,29.711575 796.721313,41.168854 784.287903,56.073330 
	C771.294373,71.649261 757.048950,86.191078 743.171936,101.017624 
	C719.161133,126.671364 695.065613,152.246414 670.895508,177.750122 
	C661.083496,188.103485 650.348572,197.584854 636.251404,201.318787 
	C628.503601,203.370926 620.206299,203.579590 612.123474,204.066254 
	C604.996948,204.495316 597.824158,204.156021 589.202393,204.156021 
	C593.083679,198.157379 596.337952,193.127792 599.804565,187.806274 
M673.457031,126.941147 
	C662.205139,141.480286 650.953247,156.019424 639.024414,171.433380 
	C641.036072,171.433380 642.044556,171.750076 642.597473,171.382156 
	C646.283691,168.929398 650.616211,166.957031 653.377136,163.681046 
	C678.604919,133.747299 703.614502,103.628563 728.516907,73.422981 
	C732.117493,69.055580 734.813049,63.941990 738.389954,58.465553 
	C730.763367,57.541077 726.192322,59.710392 722.348267,64.661499 
	C706.309387,85.319679 690.063354,105.816986 673.457031,126.941147 
z"/>
<path fill="#FBFBFB" opacity="1.000000" stroke="none" 
	d="
M533.014771,205.176453 
	C525.799377,204.923492 518.933777,205.184402 512.261108,204.172592 
	C504.375519,202.976822 500.707611,197.814026 501.587799,190.021500 
	C503.623199,172.002182 507.132996,154.252060 513.532532,137.244217 
	C517.640198,126.327278 526.590027,119.371536 535.684998,112.809891 
	C542.974060,107.551170 550.328003,102.356155 557.908875,97.534996 
	C567.032349,91.732750 572.987488,83.630798 576.645996,73.656174 
	C578.462280,68.704247 580.145386,63.703480 581.953552,58.539551 
	C576.575684,57.602089 572.888855,59.032204 570.959412,64.082466 
	C568.710999,69.967690 566.465576,75.861084 563.933105,81.625404 
	C563.350037,82.952499 561.619995,84.657684 560.388916,84.681259 
	C548.414734,84.910645 536.434326,84.819191 523.495728,84.819191 
	C524.509094,79.442642 525.302551,74.652016 526.323853,69.910469 
	C531.899841,44.023277 548.078735,29.750723 574.140869,26.169701 
	C587.500244,24.334078 600.732178,24.294538 613.658386,28.541561 
	C626.103455,32.630516 631.078552,41.125313 626.436279,53.267879 
	C616.176331,80.104454 603.402832,105.397667 577.793823,121.486969 
	C569.341614,126.797226 561.390198,132.900589 552.985840,138.292130 
	C545.028198,143.397049 539.926208,150.409988 537.175842,159.327698 
	C535.781616,163.848175 534.281006,168.335831 532.674622,173.315338 
	C538.173523,172.611694 540.529297,169.244797 542.034058,165.326874 
	C543.872864,160.539001 545.370117,155.607574 546.775757,150.670120 
	C547.665222,147.545639 549.101379,146.074890 552.669312,146.177460 
	C561.927795,146.443634 571.198975,146.266846 581.439880,146.266846 
	C571.797119,163.732086 565.469299,181.965103 553.268860,196.911484 
	C548.327881,202.964508 540.668091,203.838806 533.014771,205.176453 
z"/>
<path fill="#FBFBFB" opacity="1.000000" stroke="none" 
	d="
M414.831879,110.299713 
	C415.634949,118.639603 416.389526,126.526413 417.187378,134.865646 
	C410.188385,134.865646 403.752899,134.865646 396.365448,134.865646 
	C398.711609,147.175003 400.950104,158.919464 403.233856,170.901230 
	C411.211548,170.901230 418.840637,170.901230 427.204498,170.901230 
	C428.538361,181.875961 429.846619,192.640152 431.167389,203.507462 
	C416.268219,203.507462 401.831543,203.602036 387.401611,203.333893 
	C386.204071,203.311646 384.469269,201.026093 383.964294,199.473358 
	C371.556793,161.321442 359.279633,123.127113 346.984528,84.938675 
	C341.241974,67.102364 335.509338,49.262875 329.776276,31.423538 
	C329.326660,30.024467 328.909210,28.615076 328.319550,26.699718 
	C356.848297,26.699718 385.023804,26.699718 413.718201,26.699718 
	C414.633087,37.302353 415.554260,47.977406 416.533081,59.320816 
	C404.895020,59.320816 393.696320,59.320816 381.719696,59.320816 
	C383.700409,69.424919 385.518188,78.785416 387.383484,88.136436 
	C387.739624,89.921989 388.273834,91.672630 388.741669,93.435196 
	C390.961121,101.797966 390.963074,101.794579 399.802063,101.819984 
	C403.966400,101.831947 408.130707,101.851280 412.294830,101.888908 
	C412.606445,101.891724 412.916473,102.068977 413.542206,102.262611 
	C413.939758,104.691856 414.361572,107.269249 414.831879,110.299713 
z"/>
<path fill="#FAFAFA" opacity="1.000000" stroke="none" 
	d="
M208.931549,70.066116 
	C231.657242,102.139503 254.235779,133.878952 276.646942,165.736115 
	C278.913086,168.957397 281.283875,170.700165 285.202179,170.023560 
	C293.583954,168.576248 298.961761,171.776123 302.929291,179.515366 
	C307.130615,187.710663 312.747223,195.180450 318.151611,203.599487 
	C316.075623,203.800247 314.844177,204.018982 313.612030,204.023300 
	C298.956512,204.074615 284.300598,204.139801 269.645569,204.058701 
	C267.978119,204.049469 265.767609,203.695435 264.735962,202.615616 
	C255.191177,192.625153 245.847015,182.442886 236.464371,172.298065 
	C236.165054,171.974411 236.078445,171.454025 235.542068,170.216263 
	C240.457169,170.216263 244.979919,170.216263 251.025269,170.216263 
	C210.385498,121.866142 170.761261,74.724197 131.137009,27.582254 
	C131.330338,27.117601 131.523682,26.652946 131.717026,26.188292 
	C140.340164,26.188292 148.964081,26.117441 157.586227,26.210894 
	C164.381775,26.284552 172.209000,24.535866 177.673538,27.326233 
	C182.952271,30.021721 185.838287,37.457474 189.697205,42.866703 
	C196.076859,51.809395 202.393692,60.796886 208.931549,70.066116 
z"/>
<path fill="#FBFBFB" opacity="1.000000" stroke="none" 
	d="
M651.434937,26.815857 
	C666.606689,26.764463 681.368225,26.764463 696.517761,26.764463 
	C695.903992,27.900524 695.324280,29.180731 694.567017,30.345541 
	C657.898987,86.747986 621.185608,143.121063 584.609680,199.583130 
	C582.447998,202.919968 580.199280,204.342133 576.206787,204.104767 
	C570.269226,203.751770 564.295044,204.013290 557.508545,204.013290 
	C558.471130,201.950867 559.088501,200.487030 559.819458,199.082321 
	C588.071716,144.791168 616.312622,90.494118 644.648010,36.246372 
	C646.386597,32.917892 648.881592,29.984489 651.434937,26.815857 
z"/>
<path fill="#0E0E0E" opacity="1.000000" stroke="none" 
	d="
M200.309830,171.457275 
	C197.439362,171.199142 193.477280,171.674622 191.530487,169.917389 
	C155.670593,137.549591 120.010521,104.959625 84.430405,72.283569 
	C79.627625,67.872787 75.482872,62.745480 71.450623,57.529709 
	C78.392639,57.058460 84.072166,59.293030 88.625015,63.667767 
	C125.854683,99.440987 162.991379,135.310974 200.309830,171.457275 
z"/>
<path fill="#0A0A0A" opacity="1.000000" stroke="none" 
	d="
M463.245728,153.160583 
	C464.064178,141.132263 464.848206,129.582718 465.634705,117.997025 
	C474.820251,119.185814 475.060822,119.199730 474.570740,127.673553 
	C473.910248,139.093857 472.992493,150.506363 471.823883,161.885117 
	C471.533813,164.709427 470.093903,167.524902 468.677826,170.062790 
	C468.206543,170.907440 466.044983,171.351135 464.869659,171.073715 
	C464.060791,170.882751 463.127045,169.147430 463.098572,168.079712 
	C462.970398,163.270676 463.145508,158.453537 463.245728,153.160583 
z"/>
<path fill="#0C0C0C" opacity="1.000000" stroke="none" 
	d="
M673.675171,126.657219 
	C690.063354,105.816986 706.309387,85.319679 722.348267,64.661499 
	C726.192322,59.710392 730.763367,57.541077 738.389954,58.465553 
	C734.813049,63.941990 732.117493,69.055580 728.516907,73.422981 
	C703.614502,103.628563 678.604919,133.747299 653.377136,163.681046 
	C650.616211,166.957031 646.283691,168.929398 642.597473,171.382156 
	C642.044556,171.750076 641.036072,171.433380 639.024414,171.433380 
	C650.953247,156.019424 662.205139,141.480286 673.675171,126.657219 
z"/>
</svg>