<svg fill="none" height="100" viewBox="0 0 101 100" width="101" xmlns="http://www.w3.org/2000/svg" xmlns:xlink="http://www.w3.org/1999/xlink"><filter id="a" color-interpolation-filters="sRGB" filterUnits="userSpaceOnUse" height="102.249" width="100" x=".5" y="0"><feFlood flood-opacity="0" result="BackgroundImageFix"/><feBlend in="SourceGraphic" in2="BackgroundImageFix" mode="normal" result="shape"/><feColorMatrix in="SourceAlpha" result="hardAlpha" type="matrix" values="0 0 0 0 0 0 0 0 0 0 0 0 0 0 0 0 0 0 127 0"/><feOffset dy="2.24929"/><feGaussianBlur stdDeviation="1.12464"/><feComposite in2="hardAlpha" k2="-1" k3="1" operator="arithmetic"/><feColorMatrix type="matrix" values="0 0 0 0 0 0 0 0 0 0 0 0 0 0 0 0 0 0 0.25 0"/><feBlend in2="shape" mode="normal" result="effect1_innerShadow_4822_27648"/></filter><g filter="url(#a)"><path clip-rule="evenodd" d="m50.5 100c27.6142 0 50-22.3858 50-50s-22.3858-50-50-50-50 22.3858-50 50 22.3858 50 50 50zm13.0936-67.3235c-6.2386 1.0054-11.3791 5.2926-13.5938 11.034-2.2059-5.7186-7.3143-9.9945-13.5194-11.0219.462-7.085 6.3551-12.6886 13.557-12.6886 7.1977 0 13.0882 5.5972 13.5562 12.6765zm-16.8145 14.1027c-1.2027-4.8859-5.0487-8.7318-9.9346-9.9344 1.2027 4.8859 5.0487 8.7318 9.9346 9.9344zm3.2583-30.7792c-9.3429 0-16.9842 7.2857-17.5523 16.4855-9.1997.5684-16.4851 8.2096-16.4851 17.5523 0 9.3444 7.288 16.9866 16.4899 17.5526.6053 9.164 8.2303 16.4096 17.5475 16.4096 9.3188 0 16.9448-7.2481 17.5478-16.4144 9.1662-.603 16.4144-8.2289 16.4144-17.5478 0-9.3172-7.2456-16.9421-16.4096-17.5475-.5658-9.2021-8.2081-16.4903-17.5526-16.4903zm-30.0374 34.0378c0 7.1976 5.597 13.088 12.676 13.5562 1.0055-6.2388 5.2929-11.3794 11.0346-13.594-5.7187-2.2057-9.9948-7.3141-11.0223-13.5192-7.0849.4623-12.6883 6.3553-12.6883 13.557zm26.7987 3.1783c-4.922 1.2037-8.792 5.0889-9.9738 10.0195 4.922-1.2037 8.792-5.089 9.9738-10.0195zm3.2011 3.1491c-2.2053 5.717-7.3115 9.9921-13.5144 11.021.4985 7.0496 6.3755 12.6138 13.552 12.6138 7.1724 0 13.0467-5.5578 13.5511-12.6017-6.2364-1.007-11.3746-5.2933-13.5887-11.0331zm17.3981 7.2237c-1.007-6.2365-5.2937-11.3749-11.0338-13.5889 5.7172-2.2051 9.9925-7.3113 11.0216-13.5141 7.0496.4984 12.6139 6.3754 12.6139 13.5519 0 7.1724-5.5578 13.0467-12.6017 13.5511zm-4.1435-.3341c-1.1826-4.9662-5.0917-8.8754-10.058-10.058 1.1826 4.9663 5.0917 8.8754 10.058 10.058zm-.0194-26.4294c-4.9303 1.1817-8.8154 5.0515-10.0193 9.9732 4.9304-1.1817 8.8155-5.0515 10.0193-9.9732z" fill="#974a5c" fill-rule="evenodd"/></g></svg>