<svg fill="none" height="100" viewBox="0 0 101 100" width="101" xmlns="http://www.w3.org/2000/svg" xmlns:xlink="http://www.w3.org/1999/xlink"><filter id="a" color-interpolation-filters="sRGB" filterUnits="userSpaceOnUse" height="102.249" width="100" x=".5" y="0"><feFlood flood-opacity="0" result="BackgroundImageFix"/><feBlend in="SourceGraphic" in2="BackgroundImageFix" mode="normal" result="shape"/><feColorMatrix in="SourceAlpha" result="hardAlpha" type="matrix" values="0 0 0 0 0 0 0 0 0 0 0 0 0 0 0 0 0 0 127 0"/><feOffset dy="2.24929"/><feGaussianBlur stdDeviation="1.12464"/><feComposite in2="hardAlpha" k2="-1" k3="1" operator="arithmetic"/><feColorMatrix type="matrix" values="0 0 0 0 0 0 0 0 0 0 0 0 0 0 0 0 0 0 0.25 0"/><feBlend in2="shape" mode="normal" result="effect1_innerShadow_4822_27666"/></filter><g filter="url(#a)"><path clip-rule="evenodd" d="m100.5 50c0 27.6142-22.3858 50-50 50s-50-22.3858-50-50 22.3858-50 50-50 50 22.3858 50 50zm-51.5-24.5845h4.9177v9.8354h-4.9177zm27.8887 22.5586v4.9177h-9.8354v-4.9177zm-22.971 18.0122h-4.9177v9.8354h4.9177zm-19.3708-18.0122v4.9177h-9.8354v-4.9177zm19.4531 4.9177v-4.9177h-4.9177v4.9177zm18.0675-26.2218 3.4773 3.4773-14.7787 14.7787-3.4773-3.4774zm3.4765 42.8706-3.4773 3.4773-14.7786-14.7786 3.4773-3.4773zm-30.091-11.301-3.4773-3.4773-14.7787 14.7786 3.4773 3.4774zm.0002-16.7908-3.4773 3.4773-14.7787-14.7786 3.4774-3.4773z" fill="#654372" fill-rule="evenodd"/></g></svg>