<svg fill="none" height="100" viewBox="0 0 101 100" width="101" xmlns="http://www.w3.org/2000/svg" xmlns:xlink="http://www.w3.org/1999/xlink"><filter id="a" color-interpolation-filters="sRGB" filterUnits="userSpaceOnUse" height="102.249" width="100" x=".5" y="0"><feFlood flood-opacity="0" result="BackgroundImageFix"/><feBlend in="SourceGraphic" in2="BackgroundImageFix" mode="normal" result="shape"/><feColorMatrix in="SourceAlpha" result="hardAlpha" type="matrix" values="0 0 0 0 0 0 0 0 0 0 0 0 0 0 0 0 0 0 127 0"/><feOffset dy="2.24929"/><feGaussianBlur stdDeviation="1.12464"/><feComposite in2="hardAlpha" k2="-1" k3="1" operator="arithmetic"/><feColorMatrix type="matrix" values="0 0 0 0 0 0 0 0 0 0 0 0 0 0 0 0 0 0 0.25 0"/><feBlend in2="shape" mode="normal" result="effect1_innerShadow_4822_27682"/></filter><g filter="url(#a)"><path clip-rule="evenodd" d="m50.5 100c27.6142 0 50-22.3858 50-50s-22.3858-50-50-50-50 22.3858-50 50 22.3858 50 50 50zm26.7528-54.1948c.1651 1.1824.2511 2.3575.2622 3.5201-2.5477-2.7284-6.4896-5.4118-11.3772-7.7169.3981-5.9633-.1994-11.2633-1.6649-15.2065 6.7143 4.0726 11.6091 11.0196 12.7799 19.4033zm-16.809 18.2074c5.3941.3082 10.1382-.1673 13.6792-1.3477-3.984 7.1764-11.1725 12.4606-19.9279 13.6833-.8296.1159-1.6557.1928-2.4763.2322 3.1709-2.7649 6.2271-7.1371 8.725-12.5678zm-.0407-11.936c-.6976 2.7449-1.5453 5.3311-2.4995 7.7165-3.0306-.3196-6.2685-.8911-9.6119-1.7408-3.3443-.85-6.463-1.8941-9.279-3.0607.3005-2.5514.7905-5.2284 1.488-7.9732.6976-2.7448 1.5453-5.3308 2.4994-7.7161 3.0313.3196 6.2701.8912 9.6144 1.7411 3.3434.8497 6.4613 1.8935 9.2767 3.0597-.3005 2.5515-.7905 5.2286-1.4881 7.9735zm3.8768.9852c-.6232 2.4523-1.3637 4.8018-2.1979 7.0193 2.52.0767 4.8341-.0392 6.8689-.3287 2.7024-.3845 4.7065-1.0462 6.0188-1.802 1.2972-.7471 1.6235-1.3967 1.71-1.7371.0865-.3405.11-1.067-.6731-2.3428-.7922-1.2906-2.2371-2.8289-4.428-4.457-1.6497-1.2259-3.6277-2.4326-5.8785-3.5684-.3258 2.3466-.797 4.7646-1.4202 7.2167zm-16.9735 8.8672c-3.0467-.7743-5.9404-1.7079-8.6242-2.7585-.1217 3.1327.0639 5.9943.5161 8.4554 1.0608 5.7727 3.2031 7.7962 4.5882 8.1482 1.385.352 4.2336-.4031 7.9218-4.9688 1.5723-1.9465 3.1018-4.3721 4.4905-7.1827-2.859-.3583-5.8465-.9195-8.8924-1.6936zm-10.6824-15.8959c-.6232 2.4521-1.0943 4.8698-1.4202 7.2164-2.2499-1.1355-4.2271-2.3418-5.8762-3.5673-2.1909-1.6281-3.6358-3.1664-4.428-4.4571-.7831-1.2757-.7597-2.0023-.6732-2.3427.0866-.3405.4129-.9901 1.7101-1.7371 1.3123-.7558 3.3163-1.4176 6.0187-1.8021 2.0341-.2894 4.3474-.4052 6.8664-.3287-.834 2.2173-1.5744 4.5666-2.1976 7.0186zm16.9757-8.8665c-3.0467-.7743-6.0351-1.3356-8.8948-1.6939 1.3888-2.8107 2.9183-5.2365 4.4907-7.183 3.6882-4.5657 6.5367-5.3209 7.9218-4.9688 1.3851.352 3.5274 2.3755 4.5881 8.1482.4522 2.461.6379 5.3226.5162 8.4552-2.6831-1.0502-5.5761-1.9835-8.622-2.7577zm-26.8179-.7354c3.5405-1.1806 8.2842-1.6563 13.6781-1.3483 2.4976-5.4303 5.5535-9.8024 8.7241-12.5674-.82.0394-1.6453.1163-2.4742.2321-8.7555 1.2227-15.9441 6.507-19.928 13.6836zm7.9843 21.055c-4.8874-2.3053-8.829-4.9888-11.3762-7.7172.011 1.1631.0971 2.3387.2622 3.5216 1.1708 8.3833 6.0652 15.3301 12.779 19.4027-1.4656-3.9433-2.0631-9.2435-1.665-15.2071zm46.4482-12.2342c2.3726 16.9893-9.4766 32.6852-26.4659 35.0578-16.9894 2.3725-32.6853-9.4767-35.0578-26.466-2.3726-16.9893 9.4766-32.6852 26.466-35.0578 16.9893-2.3725 32.6852 9.4767 35.0577 26.466z" fill="#8d4734" fill-rule="evenodd"/></g></svg>