<svg fill="none" height="100" viewBox="0 0 101 100" width="101" xmlns="http://www.w3.org/2000/svg" xmlns:xlink="http://www.w3.org/1999/xlink"><filter id="a" color-interpolation-filters="sRGB" filterUnits="userSpaceOnUse" height="102.249" width="100" x=".5" y="0"><feFlood flood-opacity="0" result="BackgroundImageFix"/><feBlend in="SourceGraphic" in2="BackgroundImageFix" mode="normal" result="shape"/><feColorMatrix in="SourceAlpha" result="hardAlpha" type="matrix" values="0 0 0 0 0 0 0 0 0 0 0 0 0 0 0 0 0 0 127 0"/><feOffset dy="2.24929"/><feGaussianBlur stdDeviation="1.12464"/><feComposite in2="hardAlpha" k2="-1" k3="1" operator="arithmetic"/><feColorMatrix type="matrix" values="0 0 0 0 0 0 0 0 0 0 0 0 0 0 0 0 0 0 0.25 0"/><feBlend in2="shape" mode="normal" result="effect1_innerShadow_4822_27658"/></filter><g filter="url(#a)"><path clip-rule="evenodd" d="m50.5 100c27.6142 0 50-22.3858 50-50s-22.3858-50-50-50-50 22.3858-50 50 22.3858 50 50 50zm2.5457-54.9027-6.6022 4.539v-19.1448c0-.8963.7266-1.6229 1.6229-1.6229h29.2116c.8963 0 1.6229.7266 1.6229 1.6229v12.9829c0 .8963-.7266 1.6229-1.6229 1.6229zm-11.4708-14.6058c0-3.5852 2.9063-6.4915 6.4915-6.4915h29.2116c3.5852 0 6.4915 2.9063 6.4915 6.4915v12.9829c0 3.5852-2.9063 6.4915-6.4915 6.4915h-22.7201l-12.983 8.9258zm-16.1667 18.6628c-1.827 0-3.3081 1.4811-3.3081 3.3081v11.4849c0 1.8271 1.4811 3.3082 3.3081 3.3082h22.576l6.5733 5.2628v-18.0897h4.8686v28.2245l-13.1508-10.529h-20.8671c-4.5159 0-8.1768-3.6608-8.1768-8.1768v-11.4849c0-4.5159 3.6609-8.1768 8.1768-8.1768h12.9206v4.8687z" fill="#4a9b7f" fill-rule="evenodd"/></g></svg>